<mxfile host="app.diagrams.net" modified="2023-09-29T21:55:32.721Z" agent="Mozilla/5.0 (Windows NT 10.0; Win64; x64) AppleWebKit/537.36 (KHTML, like Gecko) Chrome/117.0.0.0 Safari/537.36" etag="_1ojJj9CTDe6vwCeqDB3" version="21.8.2" type="device">
  <diagram name="Page-1" id="2YBvvXClWsGukQMizWep">
    <mxGraphModel dx="1167" dy="646" grid="1" gridSize="10" guides="1" tooltips="1" connect="1" arrows="1" fold="1" page="1" pageScale="1" pageWidth="850" pageHeight="1100" math="0" shadow="0">
      <root>
        <mxCell id="0" />
        <mxCell id="1" parent="0" />
        <mxCell id="aM9ryv3xv72pqoxQDRHE-1" value="Scanner" style="shape=umlLifeline;perimeter=lifelinePerimeter;whiteSpace=wrap;html=1;container=0;dropTarget=0;collapsible=0;recursiveResize=0;outlineConnect=0;portConstraint=eastwest;newEdgeStyle={&quot;edgeStyle&quot;:&quot;elbowEdgeStyle&quot;,&quot;elbow&quot;:&quot;vertical&quot;,&quot;curved&quot;:0,&quot;rounded&quot;:0};" parent="1" vertex="1">
          <mxGeometry x="214" y="168" width="100" height="312" as="geometry" />
        </mxCell>
        <mxCell id="1S5iEDw2LIBPEHl0bbNe-1" value="CashRegister" style="shape=umlLifeline;perimeter=lifelinePerimeter;whiteSpace=wrap;html=1;container=1;dropTarget=0;collapsible=0;recursiveResize=0;outlineConnect=0;portConstraint=eastwest;newEdgeStyle={&quot;curved&quot;:0,&quot;rounded&quot;:0};" parent="1" vertex="1">
          <mxGeometry x="364" y="168" width="100" height="312" as="geometry" />
        </mxCell>
        <mxCell id="1S5iEDw2LIBPEHl0bbNe-13" value="" style="html=1;points=[[0,0,0,0,5],[0,1,0,0,-5],[1,0,0,0,5],[1,1,0,0,-5]];perimeter=orthogonalPerimeter;outlineConnect=0;targetShapes=umlLifeline;portConstraint=eastwest;newEdgeStyle={&quot;curved&quot;:0,&quot;rounded&quot;:0};" parent="1S5iEDw2LIBPEHl0bbNe-1" vertex="1">
          <mxGeometry x="45" y="120" width="10" height="110" as="geometry" />
        </mxCell>
        <mxCell id="1S5iEDw2LIBPEHl0bbNe-2" value="Display" style="shape=umlLifeline;perimeter=lifelinePerimeter;whiteSpace=wrap;html=1;container=1;dropTarget=0;collapsible=0;recursiveResize=0;outlineConnect=0;portConstraint=eastwest;newEdgeStyle={&quot;curved&quot;:0,&quot;rounded&quot;:0};" parent="1" vertex="1">
          <mxGeometry x="644" y="168" width="100" height="310" as="geometry" />
        </mxCell>
        <mxCell id="1S5iEDw2LIBPEHl0bbNe-15" value="" style="html=1;points=[[0,0,0,0,5],[0,1,0,0,-5],[1,0,0,0,5],[1,1,0,0,-5]];perimeter=orthogonalPerimeter;outlineConnect=0;targetShapes=umlLifeline;portConstraint=eastwest;newEdgeStyle={&quot;curved&quot;:0,&quot;rounded&quot;:0};" parent="1S5iEDw2LIBPEHl0bbNe-2" vertex="1">
          <mxGeometry x="45" y="230" width="10" height="30" as="geometry" />
        </mxCell>
        <mxCell id="1S5iEDw2LIBPEHl0bbNe-3" value="Database" style="shape=umlLifeline;perimeter=lifelinePerimeter;whiteSpace=wrap;html=1;container=1;dropTarget=0;collapsible=0;recursiveResize=0;outlineConnect=0;portConstraint=eastwest;newEdgeStyle={&quot;curved&quot;:0,&quot;rounded&quot;:0};" parent="1" vertex="1">
          <mxGeometry x="504" y="168" width="100" height="312" as="geometry" />
        </mxCell>
        <mxCell id="1S5iEDw2LIBPEHl0bbNe-14" value="" style="html=1;points=[[0,0,0,0,5],[0,1,0,0,-5],[1,0,0,0,5],[1,1,0,0,-5]];perimeter=orthogonalPerimeter;outlineConnect=0;targetShapes=umlLifeline;portConstraint=eastwest;newEdgeStyle={&quot;curved&quot;:0,&quot;rounded&quot;:0};" parent="1S5iEDw2LIBPEHl0bbNe-3" vertex="1">
          <mxGeometry x="45" y="120" width="10" height="60" as="geometry" />
        </mxCell>
        <mxCell id="1S5iEDw2LIBPEHl0bbNe-4" value="1.Scan UPC code" style="html=1;verticalAlign=bottom;endArrow=block;curved=0;rounded=0;" parent="1" edge="1">
          <mxGeometry width="80" relative="1" as="geometry">
            <mxPoint x="113.5" y="238" as="sourcePoint" />
            <mxPoint x="263.5" y="238" as="targetPoint" />
          </mxGeometry>
        </mxCell>
        <mxCell id="1S5iEDw2LIBPEHl0bbNe-5" value="2.Look up product price" style="html=1;verticalAlign=bottom;endArrow=block;curved=0;rounded=0;" parent="1" source="1S5iEDw2LIBPEHl0bbNe-11" edge="1">
          <mxGeometry width="80" relative="1" as="geometry">
            <mxPoint x="263.5" y="268" as="sourcePoint" />
            <mxPoint x="413.5" y="268" as="targetPoint" />
          </mxGeometry>
        </mxCell>
        <mxCell id="1S5iEDw2LIBPEHl0bbNe-6" value="3.Query product details" style="html=1;verticalAlign=bottom;endArrow=block;curved=0;rounded=0;" parent="1" target="1S5iEDw2LIBPEHl0bbNe-3" edge="1">
          <mxGeometry width="80" relative="1" as="geometry">
            <mxPoint x="414" y="288" as="sourcePoint" />
            <mxPoint x="494" y="288" as="targetPoint" />
          </mxGeometry>
        </mxCell>
        <mxCell id="1S5iEDw2LIBPEHl0bbNe-7" value="4.Return product details" style="html=1;verticalAlign=bottom;endArrow=open;dashed=1;endSize=8;curved=0;rounded=0;" parent="1" edge="1">
          <mxGeometry relative="1" as="geometry">
            <mxPoint x="553.5" y="348" as="sourcePoint" />
            <mxPoint x="413.5" y="348" as="targetPoint" />
          </mxGeometry>
        </mxCell>
        <mxCell id="1S5iEDw2LIBPEHl0bbNe-8" value="5.Display price" style="html=1;verticalAlign=bottom;endArrow=block;curved=0;rounded=0;" parent="1" target="1S5iEDw2LIBPEHl0bbNe-2" edge="1">
          <mxGeometry x="-0.4964" width="80" relative="1" as="geometry">
            <mxPoint x="413.5" y="398" as="sourcePoint" />
            <mxPoint x="663.5" y="398" as="targetPoint" />
            <mxPoint as="offset" />
          </mxGeometry>
        </mxCell>
        <mxCell id="1S5iEDw2LIBPEHl0bbNe-12" value="" style="html=1;verticalAlign=bottom;endArrow=block;curved=0;rounded=0;" parent="1" target="1S5iEDw2LIBPEHl0bbNe-11" edge="1">
          <mxGeometry width="80" relative="1" as="geometry">
            <mxPoint x="263.5" y="268" as="sourcePoint" />
            <mxPoint x="413.5" y="268" as="targetPoint" />
          </mxGeometry>
        </mxCell>
        <mxCell id="1S5iEDw2LIBPEHl0bbNe-11" value="" style="html=1;points=[[0,0,0,0,5],[0,1,0,0,-5],[1,0,0,0,5],[1,1,0,0,-5]];perimeter=orthogonalPerimeter;outlineConnect=0;targetShapes=umlLifeline;portConstraint=eastwest;newEdgeStyle={&quot;curved&quot;:0,&quot;rounded&quot;:0};" parent="1" vertex="1">
          <mxGeometry x="259" y="238" width="10" height="30" as="geometry" />
        </mxCell>
        <mxCell id="JZfw010O_W8satvTRf7A-2" value="" style="shape=umlLifeline;perimeter=lifelinePerimeter;whiteSpace=wrap;html=1;container=1;dropTarget=0;collapsible=0;recursiveResize=0;outlineConnect=0;portConstraint=eastwest;newEdgeStyle={&quot;curved&quot;:0,&quot;rounded&quot;:0};participant=umlActor;" vertex="1" parent="1">
          <mxGeometry x="104" y="168" width="20" height="312" as="geometry" />
        </mxCell>
        <mxCell id="JZfw010O_W8satvTRf7A-3" value="Cashier" style="text;html=1;strokeColor=none;fillColor=none;align=center;verticalAlign=middle;whiteSpace=wrap;rounded=0;" vertex="1" parent="1">
          <mxGeometry x="84" y="138" width="60" height="30" as="geometry" />
        </mxCell>
      </root>
    </mxGraphModel>
  </diagram>
</mxfile>
